<svg width="32" height="32" viewBox="0 0 32 32" fill="none" xmlns="http://www.w3.org/2000/svg">
<path d="M16.2137 14.4934C16.0803 14.4801 15.9203 14.4801 15.7737 14.4934C12.6003 14.3867 10.0803 11.7867 10.0803 8.58675C10.0803 5.32008 12.7203 2.66675 16.0003 2.66675C19.267 2.66675 21.9203 5.32008 21.9203 8.58675C21.907 11.7867 19.387 14.3867 16.2137 14.4934Z" stroke="#292D32" stroke-width="2.5" stroke-linecap="round" stroke-linejoin="round"/>
<path d="M9.54695 19.4133C6.32029 21.5733 6.32029 25.0933 9.54695 27.2399C13.2136 29.6933 19.227 29.6933 22.8936 27.2399C26.1203 25.0799 26.1203 21.5599 22.8936 19.4133C19.2403 16.9733 13.227 16.9733 9.54695 19.4133Z" stroke="#292D32" stroke-width="2.5" stroke-linecap="round" stroke-linejoin="round"/>
</svg>
